<svg width="48" height="48" xmlns="http://www.w3.org/2000/svg">

 <g>
  <title>background</title>
  <rect fill="none" id="canvas_background" height="402" width="582" y="-1" x="-1"/>
 </g>
 <g>
  <title>Layer 1</title>
  <path stroke="null" fill="#ffffff" id="svg_1" fill-rule="evenodd" d="m44.908607,14.006229c-0.046453,0.100169 -0.103004,0.196291 -0.184802,0.279259l-28.180788,28.234516c-0.110073,0.19022 -0.26256,0.356157 -0.479677,0.439125l-13.9884,3.925817c-0.029286,0.014165 -0.062611,0.016189 -0.094926,0.026307l-0.047463,0.014165c-0.008079,0.003035 -0.017167,0.001012 -0.024236,0.004047c-0.094926,0.025295 -0.188841,0.046543 -0.288816,0.045531c-0.098965,0.003035 -0.190861,-0.015177 -0.284777,-0.041484c-0.021207,-0.006071 -0.040394,-0.002024 -0.061601,-0.009106c-0.008079,-0.003035 -0.013128,-0.010118 -0.021207,-0.013154c-0.088867,-0.03339 -0.165615,-0.08398 -0.242363,-0.142665c-0.039384,-0.028331 -0.080788,-0.053626 -0.114113,-0.087016s-0.058571,-0.074874 -0.086847,-0.114334c-0.058571,-0.075886 -0.108054,-0.153795 -0.142388,-0.242834c-0.004039,-0.008094 -0.010098,-0.013154 -0.013128,-0.021248c-0.007069,-0.020236 -0.00303,-0.040472 -0.009089,-0.06172c-0.025246,-0.093086 -0.043423,-0.186173 -0.041404,-0.284318c0,-0.101181 0.020197,-0.195279 0.045443,-0.290389c0.004039,-0.008094 0.00101,-0.016189 0.004039,-0.023272l0.014138,-0.049579c0.011108,-0.030354 0.013128,-0.063744 0.026256,-0.094098l3.918206,-14.015571c0.082807,-0.218551 0.248422,-0.368298 0.438274,-0.480609l27.749584,-27.804497c0.040394,-0.045531 0.087857,-0.08398 0.12926,-0.1285l0.301944,-0.302531c0.015148,-0.015177 0.034335,-0.020236 0.050492,-0.034401c1.458219,-1.396296 3.415302,-2.276569 5.593542,-2.276569c4.48776,0 8.126238,3.645546 8.126238,8.142023c0,2.085337 -0.802828,3.968313 -2.091393,5.407105zm-3.816212,1.122096l-3.654636,-3.661735l-23.872781,23.920164c0.004039,0.008094 0.014138,0.01113 0.018177,0.019224l2.396367,4.884l25.112873,-25.161653zm-37.961156,29.315127l2.812424,-0.788199l-2.025753,-2.028676l-0.786671,2.816875zm1.397628,-5.001369l3.593035,3.601026l6.180263,-1.735252c0,0 -2.611464,-5.435435 -2.615504,-5.437459l-5.426917,-2.620584l-1.730878,6.192268zm7.621315,-5.469837c0.008079,0.004047 0.011108,0.013154 0.019187,0.018213l23.873791,-23.921176l-3.654636,-3.661735l-25.112873,25.161653l4.874531,2.403045zm26.692274,-31.491527c-1.799547,0 -3.405204,0.785163 -4.533203,2.017546l-0.007069,-0.007083l-0.519061,0.519058l8.703871,8.720777l0.532189,-0.534235l-0.006059,-0.006071c1.220905,-1.129178 1.998487,-2.732895 1.998487,-4.528855c0,-3.413842 -2.761931,-6.181138 -6.169155,-6.181138z" clip-rule="evenodd"/>
 </g>
</svg>